<svg xmlns="http://www.w3.org/2000/svg" xmlns:xlink="http://www.w3.org/1999/xlink" version="1.1" id="Layer_1" x="0px" y="0px" width="362.635px" height="175.32px" viewBox="0 0 362.635 175.32" enable-background="new 0 0 362.635 175.32" preserveAspectRatio="xMinYMin meet" xml:space="preserve"><path fill="#FFFFFF" d="M194.054 141.853h-15.485l-4.25 30.223h-55.693l4.25-30.223H44.199l6.75-47.201 76.17-91.411h70.929l-12.99 92.412h15.486L194.054 141.853zM130.119 96.9l6.24-43.456L99.896 96.9H130.119z"/><path fill="#FFFFFF" d="M350.885 44.065L333.92 61.51l-3.527-24.081 -21.834-10.748 21.812-10.797 1.277-8.854C322.689 2.447 311.684 0 298.453 0c-58.691 0-86.913 48.203-86.913 102.395 0 44.955 19.478 72.925 64.181 72.925 58.445 0 86.914-48.197 86.914-102.646 0-9.912-0.949-18.979-2.902-27.103L350.885 44.065zM281.467 128.871c-7.24 0-8.988-8.74-8.988-24.976 0-39.21 9.99-57.441 20.48-57.441 7.24 0 8.99 8.988 8.99 25.223C301.949 110.636 291.957 128.871 281.467 128.871z"/><path fill="#FFFFFF" d="M1.234 3.163h18.732l-1.234 7.968 -4.881-0.229 -2.666 16.782h-8.91l2.668-16.782L0 11.13 1.234 3.163z"/><path fill="#FFFFFF" d="M22.031 27.683H12.6l12.393-24.52h9.852l4.879 24.52h-9.432l-0.324-3.057h-6.734L22.031 27.683zM29.312 18.805l-0.354-4.325c-0.045-0.523-0.068-1.042-0.068-1.565 0-0.538 0-1.07 0-1.591h-0.324l-2.826 7.481H29.312z"/><path fill="#FFFFFF" d="M44.117 3.163h8.682l-1.848 10.636h0.193c0.17-0.502 0.416-0.979 0.732-1.434 0.311-0.455 0.621-0.898 0.922-1.333l5.535-7.869h9.719l-9.561 11.935 6.504 12.585H54.658l-3.061-7.417c-0.172-0.476-0.385-0.948-0.633-1.414 -0.252-0.466-0.389-0.948-0.41-1.446h-0.191l-1.432 10.276H40.25L44.117 3.163z"/><path fill="#FFFFFF" d="M68.576 3.163h16.492l-1.041 6.7h-7.514l-0.391 2.341h6.863l-1.008 6.373h-6.859l-0.365 2.407h7.779l-1.074 6.7h-16.75L68.576 3.163z"/></svg>